<mxfile host="app.diagrams.net" modified="2024-04-04T17:18:48.347Z" agent="Mozilla/5.0 (Macintosh; Intel Mac OS X 10_15_7) AppleWebKit/537.36 (KHTML, like Gecko) Chrome/123.0.0.0 Safari/537.36" etag="jcODHNKdJRuGUfqxSoqt" version="24.0.7" type="device">
  <diagram id="QJjx0-fPxzvcmYibJWj1" name="Page-1">
    <mxGraphModel dx="1706" dy="879" grid="1" gridSize="10" guides="1" tooltips="1" connect="1" arrows="1" fold="1" page="1" pageScale="1" pageWidth="827" pageHeight="583" math="0" shadow="0">
      <root>
        <mxCell id="0" />
        <mxCell id="1" parent="0" />
        <mxCell id="4f-DMQIj-ya-iA7LCkDa-11" value="" style="shape=cube;whiteSpace=wrap;html=1;boundedLbl=1;backgroundOutline=1;darkOpacity=0.05;darkOpacity2=0.1;size=10;direction=east;flipH=1;fillColor=#dae8fc;strokeColor=#6c8ebf;" parent="1" vertex="1">
          <mxGeometry x="166.73" y="110" width="40" height="210" as="geometry" />
        </mxCell>
        <mxCell id="4f-DMQIj-ya-iA7LCkDa-12" value="" style="shape=cube;whiteSpace=wrap;html=1;boundedLbl=1;backgroundOutline=1;darkOpacity=0.05;darkOpacity2=0.1;size=12;direction=east;flipH=1;fillColor=#d5e8d4;strokeColor=#82b366;" parent="1" vertex="1">
          <mxGeometry x="255.73" y="155" width="36" height="120" as="geometry" />
        </mxCell>
        <mxCell id="4f-DMQIj-ya-iA7LCkDa-15" value="" style="shape=cube;whiteSpace=wrap;html=1;boundedLbl=1;backgroundOutline=1;darkOpacity=0.05;darkOpacity2=0.1;size=10;direction=east;flipH=1;fillColor=#d5e8d4;strokeColor=#82b366;" parent="1" vertex="1">
          <mxGeometry x="332.73" y="182.5" width="25" height="65" as="geometry" />
        </mxCell>
        <mxCell id="4f-DMQIj-ya-iA7LCkDa-26" value="" style="shape=cube;whiteSpace=wrap;html=1;boundedLbl=1;backgroundOutline=1;darkOpacity=0.05;darkOpacity2=0.1;size=7;direction=east;flipH=1;fillColor=#ffe6cc;strokeColor=#d79b00;" parent="1" vertex="1">
          <mxGeometry x="380.23" y="205" width="29.77" height="20" as="geometry" />
        </mxCell>
        <mxCell id="q16qMvtAuAjUv3j_tnUs-21" value="// 2" style="text;html=1;strokeColor=none;fillColor=none;align=center;verticalAlign=middle;whiteSpace=wrap;rounded=0;dashed=1;dashPattern=1 1;" parent="1" vertex="1">
          <mxGeometry x="190" y="205" width="80" height="20" as="geometry" />
        </mxCell>
        <mxCell id="IOa2FOvhe7mpb5By5PjV-4" value="" style="endArrow=none;html=1;rounded=0;entryX=0;entryY=0;entryDx=36;entryDy=12;entryPerimeter=0;exitX=0;exitY=0;exitDx=0;exitDy=0;exitPerimeter=0;" edge="1" parent="1" target="4f-DMQIj-ya-iA7LCkDa-12">
          <mxGeometry width="50" height="50" relative="1" as="geometry">
            <mxPoint x="196.73000000000002" y="120" as="sourcePoint" />
            <mxPoint x="260.7299999999998" y="165" as="targetPoint" />
          </mxGeometry>
        </mxCell>
        <mxCell id="IOa2FOvhe7mpb5By5PjV-5" value="" style="endArrow=none;html=1;rounded=0;exitX=0;exitY=0;exitDx=0;exitDy=0;exitPerimeter=0;entryX=0;entryY=0;entryDx=15;entryDy=0;entryPerimeter=0;" edge="1" parent="1" source="4f-DMQIj-ya-iA7LCkDa-12" target="4f-DMQIj-ya-iA7LCkDa-15">
          <mxGeometry width="50" height="50" relative="1" as="geometry">
            <mxPoint x="20" y="300" as="sourcePoint" />
            <mxPoint x="70" y="250" as="targetPoint" />
          </mxGeometry>
        </mxCell>
        <mxCell id="IOa2FOvhe7mpb5By5PjV-6" value="" style="endArrow=none;html=1;rounded=0;entryX=1;entryY=1;entryDx=0;entryDy=0;entryPerimeter=0;exitX=0;exitY=0;exitDx=0;exitDy=200;exitPerimeter=0;" edge="1" parent="1" target="4f-DMQIj-ya-iA7LCkDa-12">
          <mxGeometry width="50" height="50" relative="1" as="geometry">
            <mxPoint x="196.73000000000002" y="320" as="sourcePoint" />
            <mxPoint x="245.7299999999998" y="285" as="targetPoint" />
          </mxGeometry>
        </mxCell>
        <mxCell id="IOa2FOvhe7mpb5By5PjV-7" value="" style="endArrow=none;html=1;rounded=0;exitX=0;exitY=0;exitDx=12;exitDy=120;exitPerimeter=0;entryX=1;entryY=1;entryDx=0;entryDy=0;entryPerimeter=0;" edge="1" parent="1" source="4f-DMQIj-ya-iA7LCkDa-12" target="4f-DMQIj-ya-iA7LCkDa-15">
          <mxGeometry width="50" height="50" relative="1" as="geometry">
            <mxPoint x="300.73" y="260" as="sourcePoint" />
            <mxPoint x="339" y="250" as="targetPoint" />
          </mxGeometry>
        </mxCell>
        <mxCell id="IOa2FOvhe7mpb5By5PjV-8" value="" style="endArrow=none;html=1;rounded=0;entryX=0;entryY=0;entryDx=24;entryDy=0;entryPerimeter=0;exitX=0;exitY=0;exitDx=0;exitDy=0;exitPerimeter=0;" edge="1" parent="1" source="4f-DMQIj-ya-iA7LCkDa-11" target="4f-DMQIj-ya-iA7LCkDa-12">
          <mxGeometry width="50" height="50" relative="1" as="geometry">
            <mxPoint x="216.73000000000002" y="100" as="sourcePoint" />
            <mxPoint x="276" y="150" as="targetPoint" />
          </mxGeometry>
        </mxCell>
        <mxCell id="IOa2FOvhe7mpb5By5PjV-9" value="" style="endArrow=none;html=1;rounded=0;entryX=0;entryY=0;entryDx=25;entryDy=10;entryPerimeter=0;" edge="1" parent="1" target="4f-DMQIj-ya-iA7LCkDa-15">
          <mxGeometry width="50" height="50" relative="1" as="geometry">
            <mxPoint x="279" y="168" as="sourcePoint" />
            <mxPoint x="330" y="190" as="targetPoint" />
          </mxGeometry>
        </mxCell>
        <mxCell id="IOa2FOvhe7mpb5By5PjV-10" value="// 2" style="text;html=1;strokeColor=none;fillColor=none;align=center;verticalAlign=middle;whiteSpace=wrap;rounded=0;dashed=1;dashPattern=1 1;" vertex="1" parent="1">
          <mxGeometry x="270" y="205" width="80" height="20" as="geometry" />
        </mxCell>
        <mxCell id="IOa2FOvhe7mpb5By5PjV-14" value="x 2" style="text;html=1;strokeColor=none;fillColor=none;align=center;verticalAlign=middle;whiteSpace=wrap;rounded=0;dashed=1;dashPattern=1 1;" vertex="1" parent="1">
          <mxGeometry x="431.44" y="205" width="80" height="20" as="geometry" />
        </mxCell>
        <mxCell id="IOa2FOvhe7mpb5By5PjV-15" value="x 2" style="text;html=1;strokeColor=none;fillColor=none;align=center;verticalAlign=middle;whiteSpace=wrap;rounded=0;dashed=1;dashPattern=1 1;" vertex="1" parent="1">
          <mxGeometry x="511.44" y="205" width="80" height="20" as="geometry" />
        </mxCell>
        <mxCell id="IOa2FOvhe7mpb5By5PjV-16" value="" style="shape=cube;whiteSpace=wrap;html=1;boundedLbl=1;backgroundOutline=1;darkOpacity=0.05;darkOpacity2=0.1;size=10;direction=east;flipH=1;fillColor=#d5e8d4;strokeColor=#82b366;" vertex="1" parent="1">
          <mxGeometry x="432.73" y="182.5" width="25" height="65" as="geometry" />
        </mxCell>
        <mxCell id="IOa2FOvhe7mpb5By5PjV-17" value="" style="shape=cube;whiteSpace=wrap;html=1;boundedLbl=1;backgroundOutline=1;darkOpacity=0.05;darkOpacity2=0.1;size=12;direction=east;flipH=1;fillColor=#d5e8d4;strokeColor=#82b366;" vertex="1" parent="1">
          <mxGeometry x="495.73" y="155" width="36" height="120" as="geometry" />
        </mxCell>
        <mxCell id="IOa2FOvhe7mpb5By5PjV-18" value="" style="shape=cube;whiteSpace=wrap;html=1;boundedLbl=1;backgroundOutline=1;darkOpacity=0.05;darkOpacity2=0.1;size=10;direction=east;flipH=1;fillColor=#dae8fc;strokeColor=#6c8ebf;" vertex="1" parent="1">
          <mxGeometry x="570.73" y="110" width="40" height="210" as="geometry" />
        </mxCell>
        <mxCell id="IOa2FOvhe7mpb5By5PjV-19" value="" style="endArrow=none;html=1;rounded=0;exitX=0;exitY=0;exitDx=0;exitDy=0;exitPerimeter=0;entryX=0;entryY=0;entryDx=22.77;entryDy=0;entryPerimeter=0;" edge="1" parent="1" source="4f-DMQIj-ya-iA7LCkDa-15" target="4f-DMQIj-ya-iA7LCkDa-26">
          <mxGeometry width="50" height="50" relative="1" as="geometry">
            <mxPoint x="217" y="120" as="sourcePoint" />
            <mxPoint x="400" y="180" as="targetPoint" />
          </mxGeometry>
        </mxCell>
        <mxCell id="IOa2FOvhe7mpb5By5PjV-20" value="" style="endArrow=none;html=1;rounded=0;exitX=0;exitY=0;exitDx=0;exitDy=0;exitPerimeter=0;entryX=0;entryY=0;entryDx=29.77;entryDy=7;entryPerimeter=0;" edge="1" parent="1" target="4f-DMQIj-ya-iA7LCkDa-26">
          <mxGeometry width="50" height="50" relative="1" as="geometry">
            <mxPoint x="348" y="193" as="sourcePoint" />
            <mxPoint x="377" y="215" as="targetPoint" />
          </mxGeometry>
        </mxCell>
        <mxCell id="IOa2FOvhe7mpb5By5PjV-22" value="" style="endArrow=none;html=1;rounded=0;entryX=1;entryY=1;entryDx=0;entryDy=0;entryPerimeter=0;exitX=0;exitY=0;exitDx=10;exitDy=65;exitPerimeter=0;" edge="1" parent="1" source="4f-DMQIj-ya-iA7LCkDa-15" target="4f-DMQIj-ya-iA7LCkDa-26">
          <mxGeometry width="50" height="50" relative="1" as="geometry">
            <mxPoint x="360" y="240" as="sourcePoint" />
            <mxPoint x="385.73" y="248" as="targetPoint" />
          </mxGeometry>
        </mxCell>
        <mxCell id="IOa2FOvhe7mpb5By5PjV-23" value="" style="endArrow=none;html=1;rounded=0;entryX=1;entryY=1;entryDx=0;entryDy=0;entryPerimeter=0;exitX=0;exitY=0;exitDx=0;exitDy=108;exitPerimeter=0;" edge="1" parent="1" source="4f-DMQIj-ya-iA7LCkDa-12">
          <mxGeometry width="50" height="50" relative="1" as="geometry">
            <mxPoint x="292" y="260" as="sourcePoint" />
            <mxPoint x="332.73" y="243.5" as="targetPoint" />
          </mxGeometry>
        </mxCell>
        <mxCell id="IOa2FOvhe7mpb5By5PjV-24" value="" style="endArrow=none;html=1;rounded=0;entryX=0;entryY=0;entryDx=25;entryDy=10;entryPerimeter=0;" edge="1" parent="1" target="IOa2FOvhe7mpb5By5PjV-16">
          <mxGeometry width="50" height="50" relative="1" as="geometry">
            <mxPoint x="403" y="213" as="sourcePoint" />
            <mxPoint x="460.73" y="145.5" as="targetPoint" />
          </mxGeometry>
        </mxCell>
        <mxCell id="IOa2FOvhe7mpb5By5PjV-26" value="" style="endArrow=none;html=1;rounded=0;entryX=1;entryY=1;entryDx=0;entryDy=0;entryPerimeter=0;exitX=0;exitY=0;exitDx=7;exitDy=20;exitPerimeter=0;" edge="1" parent="1" source="4f-DMQIj-ya-iA7LCkDa-26" target="IOa2FOvhe7mpb5By5PjV-16">
          <mxGeometry width="50" height="50" relative="1" as="geometry">
            <mxPoint x="413" y="223" as="sourcePoint" />
            <mxPoint x="443" y="203" as="targetPoint" />
          </mxGeometry>
        </mxCell>
        <mxCell id="IOa2FOvhe7mpb5By5PjV-27" value="" style="endArrow=none;html=1;rounded=0;entryX=1;entryY=1;entryDx=0;entryDy=0;entryPerimeter=0;exitX=0;exitY=0;exitDx=10;exitDy=65;exitPerimeter=0;" edge="1" parent="1" source="IOa2FOvhe7mpb5By5PjV-16" target="IOa2FOvhe7mpb5By5PjV-17">
          <mxGeometry width="50" height="50" relative="1" as="geometry">
            <mxPoint x="413" y="223" as="sourcePoint" />
            <mxPoint x="443" y="203" as="targetPoint" />
          </mxGeometry>
        </mxCell>
        <mxCell id="IOa2FOvhe7mpb5By5PjV-28" value="" style="endArrow=none;html=1;rounded=0;entryX=1;entryY=1;entryDx=0;entryDy=0;entryPerimeter=0;exitX=0;exitY=0;exitDx=12;exitDy=120;exitPerimeter=0;" edge="1" parent="1" source="IOa2FOvhe7mpb5By5PjV-17" target="IOa2FOvhe7mpb5By5PjV-18">
          <mxGeometry width="50" height="50" relative="1" as="geometry">
            <mxPoint x="458" y="258" as="sourcePoint" />
            <mxPoint x="506" y="285" as="targetPoint" />
          </mxGeometry>
        </mxCell>
        <mxCell id="IOa2FOvhe7mpb5By5PjV-29" value="" style="endArrow=none;html=1;rounded=0;entryX=0;entryY=0;entryDx=36;entryDy=12;entryPerimeter=0;" edge="1" parent="1" target="IOa2FOvhe7mpb5By5PjV-17">
          <mxGeometry width="50" height="50" relative="1" as="geometry">
            <mxPoint x="448" y="194" as="sourcePoint" />
            <mxPoint x="481" y="167" as="targetPoint" />
          </mxGeometry>
        </mxCell>
        <mxCell id="IOa2FOvhe7mpb5By5PjV-31" value="" style="endArrow=none;html=1;rounded=0;entryX=0;entryY=0;entryDx=40;entryDy=10;entryPerimeter=0;" edge="1" parent="1" target="IOa2FOvhe7mpb5By5PjV-18">
          <mxGeometry width="50" height="50" relative="1" as="geometry">
            <mxPoint x="520" y="167" as="sourcePoint" />
            <mxPoint x="568" y="140" as="targetPoint" />
          </mxGeometry>
        </mxCell>
        <mxCell id="IOa2FOvhe7mpb5By5PjV-32" value="" style="endArrow=none;html=1;rounded=0;entryX=0;entryY=0;entryDx=24;entryDy=0;entryPerimeter=0;exitX=0;exitY=0;exitDx=0;exitDy=0;exitPerimeter=0;" edge="1" parent="1" source="IOa2FOvhe7mpb5By5PjV-16" target="IOa2FOvhe7mpb5By5PjV-17">
          <mxGeometry width="50" height="50" relative="1" as="geometry">
            <mxPoint x="458" y="204" as="sourcePoint" />
            <mxPoint x="506" y="177" as="targetPoint" />
          </mxGeometry>
        </mxCell>
        <mxCell id="IOa2FOvhe7mpb5By5PjV-33" value="" style="endArrow=none;html=1;rounded=0;entryX=1.018;entryY=0.905;entryDx=0;entryDy=0;entryPerimeter=0;exitX=0;exitY=0;exitDx=0;exitDy=108;exitPerimeter=0;" edge="1" parent="1" source="IOa2FOvhe7mpb5By5PjV-17">
          <mxGeometry width="50" height="50" relative="1" as="geometry">
            <mxPoint x="531.73" y="260" as="sourcePoint" />
            <mxPoint x="570.0100000000002" y="297.04999999999995" as="targetPoint" />
          </mxGeometry>
        </mxCell>
        <mxCell id="IOa2FOvhe7mpb5By5PjV-34" value="" style="endArrow=none;html=1;rounded=0;exitX=0;exitY=0;exitDx=0;exitDy=55;exitPerimeter=0;" edge="1" parent="1" source="IOa2FOvhe7mpb5By5PjV-16">
          <mxGeometry width="50" height="50" relative="1" as="geometry">
            <mxPoint x="463.73" y="238.5" as="sourcePoint" />
            <mxPoint x="496" y="261" as="targetPoint" />
          </mxGeometry>
        </mxCell>
        <mxCell id="IOa2FOvhe7mpb5By5PjV-36" value="" style="endArrow=none;html=1;rounded=0;entryX=1;entryY=1;entryDx=0;entryDy=0;entryPerimeter=0;" edge="1" parent="1">
          <mxGeometry width="50" height="50" relative="1" as="geometry">
            <mxPoint x="410" y="220" as="sourcePoint" />
            <mxPoint x="433" y="236" as="targetPoint" />
          </mxGeometry>
        </mxCell>
        <mxCell id="IOa2FOvhe7mpb5By5PjV-37" value="x 2" style="text;html=1;strokeColor=none;fillColor=none;align=center;verticalAlign=middle;whiteSpace=wrap;rounded=0;dashed=1;dashPattern=1 1;" vertex="1" parent="1">
          <mxGeometry x="383.44" y="205" width="80" height="20" as="geometry" />
        </mxCell>
        <mxCell id="IOa2FOvhe7mpb5By5PjV-38" value="// 2" style="text;html=1;strokeColor=none;fillColor=none;align=center;verticalAlign=middle;whiteSpace=wrap;rounded=0;dashed=1;dashPattern=1 1;" vertex="1" parent="1">
          <mxGeometry x="330" y="206" width="80" height="20" as="geometry" />
        </mxCell>
      </root>
    </mxGraphModel>
  </diagram>
</mxfile>
